<svg width="21" height="21" viewBox="0 0 21 21" fill="none" xmlns="http://www.w3.org/2000/svg">
<path fill-rule="evenodd" clip-rule="evenodd" d="M15.75 0C18.6003 0 20.9202 2.2715 20.998 5.10305L21 5.25V15.75C21 18.6003 18.7285 20.9202 15.8969 20.998L15.75 21H5.25C2.39965 21 0.0798358 18.7285 0.00201694 15.8969L0 15.75V5.25C0 2.39965 2.2715 0.0798358 5.10305 0.00201694L5.25 0H15.75ZM15.75 2.1H5.25C3.54984 2.1 2.16427 3.44693 2.10217 5.13191L2.1 5.25V15.75C2.1 17.4502 3.44693 18.8357 5.13191 18.8978L5.25 18.9H15.75C17.4502 18.9 18.8357 17.5531 18.8978 15.8681L18.9 15.75V5.25C18.9 3.54984 17.5531 2.16427 15.8681 2.10217L15.75 2.1ZM8.09252 9.75754L9.45006 11.1148L10.8076 9.75754C11.2176 9.34749 11.8825 9.34749 12.2925 9.75754L17.5425 15.0075C17.9526 15.4176 17.9526 16.0824 17.5425 16.4925C17.1325 16.9025 16.4676 16.9025 16.0576 16.4925L11.5501 11.9849L10.9348 12.5995L12.2925 13.9575C12.7026 14.3676 12.7026 15.0324 12.2925 15.4425C11.8825 15.8525 11.2176 15.8525 10.8076 15.4425L7.46367 12.0985L5.04006 15.33C4.69212 15.7939 4.03398 15.8879 3.57006 15.54C3.10614 15.1921 3.01212 14.5339 3.36006 14.07L6.51006 9.87C6.89345 9.35882 7.6407 9.30571 8.09252 9.75754ZM14.7001 4.2C15.8599 4.2 16.8001 5.1402 16.8001 6.3C16.8001 7.4598 15.8599 8.4 14.7001 8.4C13.5403 8.4 12.6001 7.4598 12.6001 6.3C12.6001 5.1402 13.5403 4.2 14.7001 4.2Z" fill="#333333"/>
</svg>
