<svg width="26" height="20" viewBox="0 0 26 20" fill="none" xmlns="http://www.w3.org/2000/svg">
<path fill-rule="evenodd" clip-rule="evenodd" d="M13.65 16C14.727 16 15.6 16.8954 15.6 18C15.6 19.1046 14.727 20 13.65 20H1.95C0.873045 20 0 19.1046 0 18C0 16.8954 0.873045 16 1.95 16H13.65ZM24.05 8C25.127 8 26 8.89543 26 10C26 11.1046 25.127 12 24.05 12H1.95C0.873045 12 0 11.1046 0 10C0 8.89543 0.873045 8 1.95 8H24.05ZM18.85 0C19.927 0 20.8 0.895431 20.8 2C20.8 3.10457 19.927 4 18.85 4H1.95C0.873045 4 0 3.10457 0 2C0 0.895431 0.873045 0 1.95 0H18.85Z" fill="#333333"/>
</svg>
