<svg width="26" height="26" viewBox="0 0 26 26" fill="none" xmlns="http://www.w3.org/2000/svg">
<path fill-rule="evenodd" clip-rule="evenodd" d="M13 0C14.1168 0 15.0222 0.90538 15.0222 2.02222L15.0215 10.9778H23.9778C25.0946 10.9778 26 11.8832 26 13C26 14.1168 25.0946 15.0222 23.9778 15.0222L15.0215 15.0215L15.0222 23.9778C15.0222 25.0946 14.1168 26 13 26C11.8832 26 10.9778 25.0946 10.9778 23.9778V15.0215L2.02222 15.0222C0.90538 15.0222 0 14.1168 0 13C0 11.8832 0.90538 10.9778 2.02222 10.9778H10.9778V2.02222C10.9778 0.90538 11.8832 0 13 0Z" fill="white"/>
</svg>
