<svg width="22" height="17" viewBox="0 0 22 17" fill="none" xmlns="http://www.w3.org/2000/svg">
<path fill-rule="evenodd" clip-rule="evenodd" d="M0.829146 5.3125C1.28707 5.3125 1.65829 5.66927 1.65829 6.10938V10.8906C1.65829 11.3307 1.28707 11.6875 0.829146 11.6875C0.371221 11.6875 0 11.3307 0 10.8906V6.10938C0 5.66927 0.371221 5.3125 0.829146 5.3125ZM3.37186 3.1875C3.82978 3.1875 4.20101 3.54427 4.20101 3.98438V13.0156C4.20101 13.4557 3.82978 13.8125 3.37186 13.8125C2.91393 13.8125 2.54271 13.4557 2.54271 13.0156V3.98438C2.54271 3.54427 2.91393 3.1875 3.37186 3.1875ZM5.91457 0C6.3725 0 6.74372 0.356773 6.74372 0.796875V16.2031C6.74372 16.6432 6.3725 17 5.91457 17C5.45665 17 5.08543 16.6432 5.08543 16.2031V0.796875C5.08543 0.356773 5.45665 0 5.91457 0ZM8.45729 2.125C8.91521 2.125 9.28643 2.48177 9.28643 2.92188V14.0781C9.28643 14.5182 8.91521 14.875 8.45729 14.875C7.99936 14.875 7.62814 14.5182 7.62814 14.0781V2.92188C7.62814 2.48177 7.99936 2.125 8.45729 2.125ZM11 4.25C11.4579 4.25 11.8291 4.60677 11.8291 5.04688V11.9531C11.8291 12.3932 11.4579 12.75 11 12.75C10.5421 12.75 10.1709 12.3932 10.1709 11.9531V5.04688C10.1709 4.60677 10.5421 4.25 11 4.25ZM13.5427 5.3125C14.0006 5.3125 14.3719 5.66927 14.3719 6.10938V10.8906C14.3719 11.3307 14.0006 11.6875 13.5427 11.6875C13.0848 11.6875 12.7136 11.3307 12.7136 10.8906V6.10938C12.7136 5.66927 13.0848 5.3125 13.5427 5.3125ZM16.0854 3.71875C16.5434 3.71875 16.9146 4.07552 16.9146 4.51562V12.4844C16.9146 12.9245 16.5434 13.2812 16.0854 13.2812C15.6275 13.2812 15.2563 12.9245 15.2563 12.4844V4.51562C15.2563 4.07552 15.6275 3.71875 16.0854 3.71875ZM18.6281 5.84375C19.0861 5.84375 19.4573 6.20052 19.4573 6.64062V10.3594C19.4573 10.7995 19.0861 11.1562 18.6281 11.1562C18.1702 11.1562 17.799 10.7995 17.799 10.3594V6.64062C17.799 6.20052 18.1702 5.84375 18.6281 5.84375ZM21.1709 7.4375C21.6288 7.4375 22 7.79427 22 8.23438V8.76562C22 9.20573 21.6288 9.5625 21.1709 9.5625C20.7129 9.5625 20.3417 9.20573 20.3417 8.76562V8.23438C20.3417 7.79427 20.7129 7.4375 21.1709 7.4375Z" fill="#333333"/>
</svg>
