<svg width="12" height="16" viewBox="0 0 12 16" fill="none" xmlns="http://www.w3.org/2000/svg">
<path d="M0 16V0H6.15707C7.31937 0 8.28665 0.18099 9.0589 0.542969C9.83115 0.904948 10.4097 1.39844 10.7945 2.02344C11.1793 2.64844 11.3717 3.35677 11.3717 4.14844C11.3717 4.79948 11.2461 5.35547 10.9948 5.81641C10.7435 6.27734 10.4058 6.65104 9.98168 6.9375C9.55759 7.22396 9.08377 7.42969 8.56021 7.55469V7.71094C9.13089 7.74219 9.67932 7.91537 10.2055 8.23047C10.7317 8.54557 11.1623 8.98958 11.4974 9.5625C11.8325 10.1354 12 10.8281 12 11.6406C12 12.4688 11.7984 13.2122 11.3953 13.8711C10.9921 14.5299 10.3848 15.0495 9.5733 15.4297C8.76178 15.8099 7.74084 16 6.51047 16H0ZM2.91361 13.5781H6.04712C7.10471 13.5781 7.8678 13.3763 8.33639 12.9727C8.80497 12.569 9.03927 12.0495 9.03927 11.4141C9.03927 10.9401 8.92147 10.5117 8.68586 10.1289C8.45026 9.74609 8.11518 9.44401 7.68063 9.22266C7.24607 9.0013 6.72775 8.89062 6.12565 8.89062H2.91361V13.5781ZM2.91361 6.80469H5.79581C6.29843 6.80469 6.75131 6.71224 7.15445 6.52734C7.55759 6.34245 7.87565 6.07943 8.10864 5.73828C8.34162 5.39714 8.45811 4.99219 8.45811 4.52344C8.45811 3.90365 8.23953 3.39323 7.80236 2.99219C7.36518 2.59115 6.71728 2.39063 5.85864 2.39063H2.91361V6.80469Z" fill="#333333"/>
</svg>
