<svg width="11" height="16" viewBox="0 0 11 16" fill="none" xmlns="http://www.w3.org/2000/svg">
<path fill-rule="evenodd" clip-rule="evenodd" d="M2.61905 0H11L10.4762 1.06667H9.30577C8.77743 1.06667 8.33177 1.46724 8.26624 2.00103L8.25 2.13333L6.41667 13.8667C6.35282 14.3867 6.71512 14.861 7.22588 14.926C7.26423 14.9309 7.30284 14.9333 7.34149 14.9333H8.90476L8.38095 16H0L0.52381 14.9333H2.21804C2.74638 14.9333 3.19204 14.5328 3.25757 13.999L3.27381 13.8667L5.10714 2.13333C5.17099 1.61328 4.80869 1.139 4.29793 1.07399C4.25958 1.06911 4.22097 1.06667 4.18232 1.06667H2.09524L2.61905 0Z" fill="#333333"/>
</svg>
