<svg width="14" height="18" viewBox="0 0 14 18" fill="none" xmlns="http://www.w3.org/2000/svg">
<path d="M3.25 0.545455V9.54545C3.25 11.2023 4.48122 12.5455 6 12.5455H8C9.51878 12.5455 10.75 11.2023 10.75 9.54545V0.545455C10.75 0.244208 10.9739 0 11.25 0H12.75C13.0261 0 13.25 0.244208 13.25 0.545455V9.54545C13.25 12.7085 10.8995 15.2727 8 15.2727H6C3.10051 15.2727 0.75 12.7085 0.75 9.54545V0.545455C0.75 0.244208 0.973858 0 1.25 0H2.75C3.02614 0 3.25 0.244208 3.25 0.545455ZM0.75 16.3636H13.25C13.6642 16.3636 14 16.7299 14 17.1818C14 17.6337 13.6642 18 13.25 18H0.75C0.335786 18 0 17.6337 0 17.1818C0 16.7299 0.335786 16.3636 0.75 16.3636Z" fill="#333333"/>
</svg>
